<svg width="14" height="14" viewBox="0 0 14 14" fill="none" xmlns="http://www.w3.org/2000/svg">
<path d="M5.8335 7.58329C6.34039 8.26095 7.11661 8.68504 7.96071 8.74549C8.8048 8.80594 9.63354 8.4968 10.2318 7.89829L11.9818 6.14829C13.0872 5.00386 13.0714 3.18471 11.9463 2.05966C10.8212 0.934599 9.0021 0.918791 7.85766 2.02413L6.85433 3.02163" stroke="#3E69FF" stroke-width="1.16667" stroke-linecap="round" stroke-linejoin="round"/>
<path d="M8.16678 6.41666C7.65989 5.73901 6.88367 5.31492 6.03957 5.25447C5.19547 5.19402 4.36674 5.50316 3.76845 6.10166L2.01845 7.85166C0.913115 8.9961 0.928923 10.8152 2.05398 11.9403C3.17904 13.0654 4.99818 13.0812 6.14262 11.9758L7.14012 10.9783" stroke="#3E69FF" stroke-width="1.16667" stroke-linecap="round" stroke-linejoin="round"/>
</svg>
