<svg width="47" height="46" viewBox="0 0 47 46" fill="none" xmlns="http://www.w3.org/2000/svg">
<rect y="0.50824" width="46.0148" height="44.9836" rx="22.4918" fill="black"/>
<path d="M30.0236 25.9605C29.8866 26.0809 29.7847 26.2362 29.7288 26.4098C29.6729 26.5835 29.6651 26.769 29.7061 26.9468L31.3961 34.2643C31.4408 34.4554 31.4282 34.6554 31.36 34.8394C31.2918 35.0235 31.1709 35.1833 31.0124 35.2992C30.854 35.415 30.6649 35.4816 30.4689 35.4907C30.2728 35.4999 30.0784 35.4511 29.9099 35.3505L23.5224 31.4755C23.3672 31.3811 23.189 31.3312 23.0074 31.3312C22.8257 31.3312 22.6476 31.3811 22.4924 31.4755L16.1049 35.3505C15.9363 35.4511 15.7419 35.4999 15.5459 35.4907C15.3498 35.4816 15.1608 35.415 15.0023 35.2992C14.8439 35.1833 14.723 35.0235 14.6548 34.8394C14.5865 34.6554 14.574 34.4554 14.6186 34.2643L16.3086 26.9468C16.3497 26.769 16.3419 26.5835 16.286 26.4098C16.2301 26.2362 16.1282 26.0809 15.9911 25.9605L10.3524 21.0418C10.2016 20.9136 10.0923 20.7437 10.0381 20.5534C9.98402 20.3631 9.98756 20.161 10.0483 19.9727C10.1091 19.7844 10.2243 19.6184 10.3795 19.4956C10.5346 19.3728 10.7227 19.2989 10.9199 19.283L18.3524 18.6405C18.5337 18.6244 18.7072 18.559 18.8541 18.4515C19.0011 18.344 19.1158 18.1984 19.1861 18.0305L22.0899 11.1105C22.1674 10.9316 22.2956 10.7793 22.4586 10.6723C22.6216 10.5653 22.8124 10.5082 23.0074 10.5082C23.2024 10.5082 23.3931 10.5653 23.5561 10.6723C23.7192 10.7793 23.8473 10.9316 23.9249 11.1105L26.8286 18.0305C26.8989 18.1984 27.0137 18.344 27.1606 18.4515C27.3076 18.559 27.481 18.6244 27.6624 18.6405L35.0949 19.283C35.2921 19.2989 35.4802 19.3728 35.6353 19.4956C35.7905 19.6184 35.9057 19.7844 35.9664 19.9727C36.0272 20.161 36.0307 20.3631 35.9766 20.5534C35.9225 20.7437 35.8131 20.9136 35.6624 21.0418L30.0236 25.9605Z" fill="url(#paint0_linear_1_1542)"/>
<defs>
<linearGradient id="paint0_linear_1_1542" x1="23.0074" y1="10.5082" x2="23.0074" y2="35.4918" gradientUnits="userSpaceOnUse">
<stop stop-color="#F4DBBA"/>
<stop offset="1" stop-color="#965A2A"/>
</linearGradient>
</defs>
</svg>
