<svg width="32" height="32" viewBox="0 0 32 32" fill="none" xmlns="http://www.w3.org/2000/svg">
<path d="M29.6098 3.27376C29.4549 3.13997 29.2664 3.051 29.0646 3.01641C28.8629 2.98183 28.6555 3.00296 28.4648 3.07751L3.13233 12.9913C2.77331 13.1309 2.46936 13.3833 2.26623 13.7106C2.06311 14.0379 1.97181 14.4224 2.00607 14.806C2.04034 15.1897 2.19831 15.5519 2.45622 15.838C2.71413 16.1241 3.058 16.3187 3.43608 16.3925L9.99983 17.6813V25C9.99854 25.3987 10.117 25.7885 10.3399 26.119C10.5628 26.4496 10.8798 26.7055 11.2498 26.8538C11.6193 27.0046 12.0257 27.0409 12.416 26.9577C12.8064 26.8746 13.1627 26.6759 13.4386 26.3875L16.6036 23.105L21.6248 27.5C21.9871 27.8213 22.4543 27.9992 22.9386 28C23.1508 27.9998 23.3617 27.9665 23.5636 27.9013C23.8935 27.7966 24.1903 27.6073 24.4243 27.3522C24.6583 27.0971 24.8214 26.7852 24.8973 26.4475L29.9711 4.37501C30.0165 4.17595 30.0068 3.96829 29.9432 3.77429C29.8795 3.58029 29.7643 3.40727 29.6098 3.27376ZM21.9673 7.77376L10.7686 15.7938L4.56858 14.5775L21.9673 7.77376ZM11.9998 25V19.065L15.0986 21.7825L11.9998 25ZM22.9411 26L12.6061 16.9375L27.4811 6.27626L22.9411 26Z" fill="white"/>
</svg>
