<svg width="42" height="42" viewBox="0 0 42 42" fill="none" xmlns="http://www.w3.org/2000/svg">
<rect width="42" height="42" rx="21" fill="white"/>
<path d="M21 0C32.5977 0 42 9.40227 42 21C42 32.5977 32.5977 42 21 42C9.40227 42 0 32.5977 0 21C0 9.40227 9.40227 0 21 0ZM28.244 29.5604C28.6297 28.3758 30.4405 16.5642 30.6629 14.2361C30.7306 13.5316 30.5073 13.063 30.072 12.853C29.5441 12.6 28.7633 12.726 27.8555 13.0534C26.6118 13.502 10.7138 20.2516 9.79554 20.643C8.925 21.0134 8.10123 21.4162 8.10123 22.0013C8.10123 22.4127 8.34559 22.6437 9.01759 22.8833C9.71632 23.1325 11.4775 23.666 12.5189 23.9534C13.5211 24.2302 14.6599 23.9896 15.2995 23.5925C15.9762 23.1716 23.7959 17.9407 24.3562 17.4815C24.9165 17.0234 25.3642 17.6104 24.906 18.0695C24.4478 18.5277 19.0814 23.7367 18.3731 24.4583C17.513 25.3336 18.123 26.2414 18.7005 26.6051C19.3582 27.0203 24.0927 30.1951 24.8058 30.7049C25.5188 31.2146 26.2414 31.4456 26.9039 31.4456C27.5663 31.4446 27.9147 30.5722 28.244 29.5604Z" fill="black"/>
</svg>
