<svg width="30" height="30" viewBox="0 0 30 30" fill="none" xmlns="http://www.w3.org/2000/svg">
<rect width="30" height="30" rx="15" fill="white"/>
<path d="M15 0C23.2841 0 30 6.71591 30 15C30 23.2841 23.2841 30 15 30C6.71591 30 0 23.2841 0 15C0 6.71591 6.71591 0 15 0ZM20.1743 21.1145C20.4498 20.2684 21.7432 11.8316 21.902 10.1686C21.9505 9.66545 21.7909 9.33068 21.48 9.18068C21.103 9 20.5452 9.09 19.8968 9.32386C19.0084 9.64432 7.65273 14.4655 6.99682 14.745C6.375 15.0095 5.78659 15.2973 5.78659 15.7152C5.78659 16.0091 5.96114 16.1741 6.44114 16.3452C6.94023 16.5232 8.19818 16.9043 8.94205 17.1095C9.65795 17.3073 10.4714 17.1355 10.9282 16.8518C11.4116 16.5511 16.997 12.8148 17.3973 12.4868C17.7975 12.1595 18.1173 12.5789 17.79 12.9068C17.4627 13.2341 13.6295 16.9548 13.1236 17.4702C12.5093 18.0955 12.945 18.7439 13.3575 19.0036C13.8273 19.3002 17.2091 21.568 17.7184 21.932C18.2277 22.2961 18.7439 22.4611 19.217 22.4611C19.6902 22.4605 19.9391 21.8373 20.1743 21.1145Z" fill="black"/>
</svg>
